<?xml version="1.0" encoding="UTF-8"?>
<svg width="24px" height="24px" viewBox="0 0 24 24" version="1.1" xmlns="http://www.w3.org/2000/svg" xmlns:xlink="http://www.w3.org/1999/xlink">
    <!-- Generator: Sketch 61 (89581) - https://sketch.com -->
    <title>icon--dribbble</title>
    <desc>Created with Sketch.</desc>
    <g id="icon--dribbble" stroke="none" stroke-width="1" fill="none" fill-rule="evenodd">
        <g>
            <g id="dribbble" transform="translate(3.000000, 3.000000)" fill="#FFFFFF" fill-rule="nonzero">
                <path d="M15.9256,8.73392 C15.9252244,12.7087796 12.7026596,15.9307355 8.72780002,15.9303599 C4.75294043,15.9299844 1.53098452,12.7074196 1.53136006,8.73255998 C1.53173561,4.75770039 4.75430041,1.53574446 8.72916,1.53612 C12.7015346,1.54248683 15.9199838,4.76154423 15.9256,8.73392 L15.9256,8.73392 Z M8.72916,0.57392 C4.22251644,0.57392 0.56916,4.22727644 0.56916,8.73392 C0.56916,13.2405636 4.22251644,16.89392 8.72916,16.89392 C13.2358036,16.89392 16.88916,13.2405636 16.88916,8.73392 C16.8839132,4.22956163 13.2335188,0.579471388 8.72916,0.5746 L8.72916,0.57392 Z" id="Path_18"></path>
                <path d="M5.423,1.7374 L5.423,1.7374 C5.47944,1.8054 11.1418,8.7414 11.41448,15.71684 L12.37736,15.67944 C12.0904,8.3742 6.40764,1.41644 6.16624,1.12744 L5.42368,1.73944 L5.423,1.7374 Z" id="Path_19"></path>
                <path d="M0.88128,7.80436 C0.96424,7.8268 9.15484,10.03544 14.28952,3.57068 L13.53472,2.97228 C8.79512,8.93996 1.21788,6.89928 1.1424,6.87684 L0.88128,7.80436 L0.88128,7.80436 Z" id="Path_20"></path>
                <path d="M3.8896,14.63564 L3.8896,14.63564 C4.0596,14.30652 8.14436,6.64564 16.0956,9.7308 L16.4458,8.8332 C7.6806,5.4332 3.0804,14.10524 3.03348,14.19364 L3.8896,14.63564 Z" id="Path_21"></path>
            </g>
            <rect id="Rectangle_844" x="0" y="0" width="24" height="24"></rect>
        </g>
    </g>
</svg>