<?xml version="1.0" encoding="UTF-8"?>
<svg width="24px" height="24px" viewBox="0 0 24 24" version="1.1" xmlns="http://www.w3.org/2000/svg" xmlns:xlink="http://www.w3.org/1999/xlink">
    <!-- Generator: Sketch 61 (89581) - https://sketch.com -->
    <title>icon--instagram</title>
    <desc>Created with Sketch.</desc>
    <g id="icon--instagram" stroke="none" stroke-width="1" fill="none" fill-rule="evenodd">
        <g>
            <path d="M9.33333333,12 C9.33333333,10.5272407 10.5272407,9.33333333 12,9.33333333 C13.4727593,9.33333333 14.6666667,10.5272407 14.6666667,12 C14.6666667,13.4727593 13.4727593,14.6666667 12,14.6666667 C10.5272407,14.6666667 9.33333333,13.4727593 9.33333333,12 M7.892,12 C7.892,14.2687858 9.73121425,16.108 12,16.108 C14.2687858,16.108 16.108,14.2687858 16.108,12 C16.108,9.73121425 14.2687858,7.892 12,7.892 C9.73121425,7.892 7.892,9.73121425 7.892,12 M15.3106664,7.72933333 C15.310397,8.11767764 15.5441224,8.46793303 15.9028284,8.61673287 C16.2615344,8.7655327 16.6745568,8.68356382 16.9492531,8.40905825 C17.2239494,8.13455269 17.3062052,7.72158732 17.1576546,7.36277805 C17.009104,7.00396878 16.6590111,6.77 16.2706667,6.77 C15.7408857,6.77036714 15.3114018,7.19955272 15.3106664,7.72933333 M8.768,18.512 C8.26075615,18.5061502 7.75830611,18.413012 7.28266667,18.2366667 C6.93513162,18.1077004 6.62080642,17.9027057 6.36266667,17.6366667 C6.09630691,17.3790519 5.89125376,17.0648649 5.76266667,16.7173333 C5.58632136,16.2416939 5.49318318,15.7392438 5.48733333,15.232 C5.44866667,14.3886667 5.44066667,14.1353333 5.44066667,11.9993333 C5.44066667,9.86333333 5.44933333,9.61 5.48733333,8.76666667 C5.49359227,8.25946288 5.58671763,7.757082 5.76266667,7.28133333 C5.89163293,6.93379829 6.09662763,6.61947309 6.36266667,6.36133333 C6.6203417,6.09473086 6.93480338,5.88964716 7.28266667,5.76133333 C7.75830611,5.58498802 8.26075615,5.49184984 8.768,5.486 C9.61066667,5.44866667 9.86666667,5.44133333 12,5.44133333 C14.1333333,5.44133333 14.3893333,5.45 15.2326667,5.488 C15.7398705,5.49425894 16.2422513,5.5873843 16.718,5.76333333 C17.0656575,5.89205634 17.3800335,6.09708414 17.638,6.36333333 C17.9041615,6.62137219 18.1091754,6.93572694 18.238,7.28333333 C18.4143453,7.75897277 18.5074835,8.26142282 18.5133333,8.76866667 C18.552,9.61266667 18.56,9.86533333 18.56,12.0013333 C18.56,14.1373333 18.552,14.3906667 18.5133333,15.234 C18.5071533,15.7412115 18.4140254,16.2436057 18.238,16.7193333 C17.9687801,17.4170391 17.4171572,17.9684199 16.7193333,18.2373333 C16.2436939,18.4136786 15.7412438,18.5068168 15.234,18.5126667 C14.3906667,18.5513333 14.1373333,18.5593333 12.0013333,18.5593333 C9.86533333,18.5593333 9.612,18.5513333 8.76933333,18.5126667 M8.702,4.04866667 C8.03832046,4.06168542 7.38166357,4.18724597 6.76,4.42 C6.22612674,4.62091884 5.74245815,4.93578117 5.34266667,5.34266667 C4.93551421,5.7422397 4.62061104,6.22597102 4.42,6.76 C4.18724597,7.38166357 4.06168542,8.03832046 4.04866667,8.702 C4.00933333,9.55466667 4,9.82733333 4,12 C4,14.1726667 4.00933333,14.4453333 4.04866667,15.298 C4.06168542,15.9616795 4.18724597,16.6183364 4.42,17.24 C4.6205338,17.774068 4.93544724,18.2578151 5.34266667,18.6573333 C5.74241729,19.0642688 6.2260976,19.3791387 6.76,19.58 C7.38168802,19.8126669 8.03832988,19.9382246 8.702,19.9513333 C9.55533333,19.99 9.82733333,20 12,20 C14.1726667,20 14.4453333,19.9906667 15.298,19.9513333 C15.9616795,19.9383146 16.6183364,19.812754 17.24,19.58 C18.3147682,19.1644 19.1644,18.3147682 19.58,17.24 C19.8130414,16.6184171 19.9386114,15.9617106 19.9513333,15.298 C19.99,14.4446667 20,14.1726667 20,12 C20,9.82733333 19.9906667,9.55466667 19.952,8.702 C19.9387678,8.03828199 19.8129816,7.3816239 19.58,6.76 C19.3788515,6.22624301 19.0640196,5.74262113 18.6573333,5.34266667 C18.2577758,4.93581206 17.7743306,4.62094704 17.2406667,4.42 C16.6190451,4.18709624 15.9623624,4.06153074 15.2986667,4.04866667 C14.446,4.01 14.1733333,4 12,4 C9.82666667,4 9.55533333,4.00933333 8.702,4.04866667" id="instagram-glyph-1" fill="#FFFFFF" fill-rule="nonzero"></path>
            <rect id="Rectangle_842" x="0" y="0" width="24" height="24"></rect>
        </g>
    </g>
</svg>